<?xml version="1.0" encoding="utf-8"?>
<!-- Generator: Adobe Illustrator 22.0.1, SVG Export Plug-In . SVG Version: 6.00 Build 0)  -->
<svg version="1.1" id="Layer_1" xmlns="http://www.w3.org/2000/svg" xmlns:xlink="http://www.w3.org/1999/xlink" x="0px" y="0px"
	 viewBox="0 0 31.867 31.882" enable-background="new 0 0 31.867 31.882" xml:space="preserve">
<g>
	
		<line fill="none" stroke="#02AC46" stroke-width="0.75" stroke-linecap="round" stroke-linejoin="round" x1="21.616" y1="3.043" x2="23.428" y2="4.896"/>
	
		<line fill="none" stroke="#02AC46" stroke-width="0.75" stroke-linecap="round" stroke-linejoin="round" x1="21.616" y1="4.896" x2="23.428" y2="3.043"/>
</g>
<line fill="none" stroke="#02AC46" stroke-width="0.75" stroke-linecap="round" stroke-linejoin="round" x1="17.491" y1="26.195" x2="0.375" y2="26.195"/>
<polyline fill="none" stroke="#02AC46" stroke-width="0.75" stroke-linecap="round" stroke-linejoin="round" points="0.375,26.195 
	0.375,0.375 26.134,0.375 26.134,17.707 "/>
<line fill="none" stroke="#02AC46" stroke-width="0.75" stroke-linecap="round" stroke-linejoin="round" x1="0.638" y1="7.565" x2="26.134" y2="7.565"/>
<rect x="17.138" y="3.071" fill="none" stroke="#02AC46" stroke-width="0.75" stroke-linecap="round" stroke-linejoin="round" width="1.798" height="1.797"/>
<line fill="none" stroke="#02AC46" stroke-width="0.75" stroke-linecap="round" stroke-linejoin="round" x1="14.451" y1="4.868" x2="12.653" y2="4.868"/>
<polyline fill="none" stroke="#02AC46" stroke-width="0.75" stroke-linecap="round" stroke-linejoin="round" points="16.279,19.718 
	19.223,16.336 16.279,12.953 "/>
<polyline fill="none" stroke="#02AC46" stroke-width="0.75" stroke-linecap="round" stroke-linejoin="round" points="9.927,19.718 
	6.983,16.336 9.927,12.953 "/>
<line fill="none" stroke="#02AC46" stroke-width="0.75" stroke-linecap="round" stroke-linejoin="round" x1="15.193" y1="10.014" x2="11.092" y2="22.394"/>
<g>
	<path fill="none" stroke="#02AC46" stroke-width="0.75" stroke-linecap="round" stroke-linejoin="round" d="M24.491,17.508
		c-3.866,0-6.999,3.133-6.999,6.999c0,3.867,3.133,7.001,6.999,7.001c3.866,0,7.001-3.134,7.001-7.001
		C31.492,20.641,28.357,17.508,24.491,17.508z"/>
	
		<line fill="none" stroke="#02AC46" stroke-width="0.75" stroke-linecap="round" stroke-linejoin="round" x1="24.492" y1="20.449" x2="24.492" y2="28.566"/>
	
		<line fill="none" stroke="#02AC46" stroke-width="0.75" stroke-linecap="round" stroke-linejoin="round" x1="20.433" y1="24.507" x2="28.55" y2="24.507"/>
</g>
</svg>
