<?xml version="1.0" encoding="UTF-8"?>
<svg width="26px" height="26px" viewBox="0 0 26 26" version="1.1" xmlns="http://www.w3.org/2000/svg" xmlns:xlink="http://www.w3.org/1999/xlink">
    <title>menu_java_logo_hover</title>
    <defs></defs>
    <g id="Page-1" stroke="none" stroke-width="1" fill="none" fill-rule="evenodd">
        <g id="menu_java_logo_hover">
            <g id="svg_1" transform="translate(5.000000, 3.000000)" fill="#02AC46" fill-rule="nonzero">
                <path d="M10.1499999,0.051000042 C10.6109999,0.576000042 10.7619999,1.32700004 10.6309999,2.00400004 C10.4869999,2.76400004 10.0669999,3.43700004 9.56999987,4.01500004 C9.17299987,4.48200004 8.71599987,4.89400004 8.24099987,5.27700004 C7.68499987,5.72300004 7.14099987,6.20500004 6.79299987,6.83200004 C6.49799987,7.34200004 6.42999987,7.97100004 6.63099987,8.52500004 C6.95899987,9.47700004 7.72699987,10.184 8.14199987,11.082 C7.68099987,10.674 7.22999987,10.252 6.80899987,9.80600004 C6.36699987,9.33500004 5.94999987,8.83400004 5.67499987,8.24600004 C5.48699987,7.83400004 5.40399987,7.35200004 5.54699987,6.91700004 C5.68999987,6.47000004 6.00799987,6.11200004 6.32599987,5.77800004 C7.21499987,4.89000004 8.30899987,4.23700004 9.17699987,3.33400004 C9.65799987,2.83900004 10.0569999,2.24500004 10.1939999,1.56300004 C10.3059999,1.06200004 10.2529999,0.547000042 10.1499999,0.051000042" id="path156_2_"></path>
                <path d="M10.1499999,0.051000042 C10.6109999,0.576000042 10.7619999,1.32700004 10.6309999,2.00400004 C10.4869999,2.76400004 10.0669999,3.43700004 9.56999987,4.01500004 C9.17299987,4.48200004 8.71599987,4.89400004 8.24099987,5.27700004 C7.68499987,5.72300004 7.14099987,6.20500004 6.79299987,6.83200004 C6.49799987,7.34200004 6.42999987,7.97100004 6.63099987,8.52500004 C6.95899987,9.47700004 7.72699987,10.184 8.14199987,11.082 C7.68099987,10.674 7.22999987,10.252 6.80899987,9.80600004 C6.36699987,9.33500004 5.94999987,8.83400004 5.67499987,8.24600004 C5.48699987,7.83400004 5.40399987,7.35200004 5.54699987,6.91700004 C5.68999987,6.47000004 6.00799987,6.11200004 6.32599987,5.77800004 C7.21499987,4.89000004 8.30899987,4.23700004 9.17699987,3.33400004 C9.65799987,2.83900004 10.0569999,2.24500004 10.1939999,1.56300004 C10.3059999,1.06200004 10.2529999,0.547000042 10.1499999,0.051000042 Z" id="path158_2_"></path>
                <path d="M9.42299987,5.63900004 C10.3739999,4.93700004 11.4889999,4.49100004 12.6179999,4.16700004 C11.7239999,4.73600004 10.7929999,5.25600004 10.0209999,5.98800004 C9.74199987,6.25800004 9.47599987,6.56700004 9.35399987,6.94500004 C9.26099987,7.22400004 9.29899987,7.53400004 9.41299987,7.79900004 C9.61999987,8.27000004 9.96799987,8.65200004 10.2329999,9.08400004 C10.4589999,9.45200004 10.4979999,9.92300004 10.3249999,10.321 C10.0659999,10.904 9.55599987,11.331 9.02499987,11.67 C8.95699987,11.71 8.89799987,11.783 8.81499987,11.793 C9.16799987,11.473 9.44399987,11.022 9.43199987,10.537 C9.42199987,10.174 9.22099987,9.85500004 8.98699987,9.59500004 C8.50099987,9.01600004 8.09199987,8.28100004 8.17599987,7.50000004 C8.25999987,6.71800004 8.82099987,6.09000004 9.42299987,5.63900004" id="path160_2_"></path>
                <path d="M9.42299987,5.63900004 C10.3739999,4.93700004 11.4889999,4.49100004 12.6179999,4.16700004 C11.7239999,4.73600004 10.7929999,5.25600004 10.0209999,5.98800004 C9.74199987,6.25800004 9.47599987,6.56700004 9.35399987,6.94500004 C9.26099987,7.22400004 9.29899987,7.53400004 9.41299987,7.79900004 C9.61999987,8.27000004 9.96799987,8.65200004 10.2329999,9.08400004 C10.4589999,9.45200004 10.4979999,9.92300004 10.3249999,10.321 C10.0659999,10.904 9.55599987,11.331 9.02499987,11.67 C8.95699987,11.71 8.89799987,11.783 8.81499987,11.793 C9.16799987,11.473 9.44399987,11.022 9.43199987,10.537 C9.42199987,10.174 9.22099987,9.85500004 8.98699987,9.59500004 C8.50099987,9.01600004 8.09199987,8.28100004 8.17599987,7.50000004 C8.25999987,6.71800004 8.82099987,6.09000004 9.42299987,5.63900004 Z" id="path162_2_"></path>
                <path d="M12.7999999,11.311 C13.0049999,11.061 13.3329999,10.997 13.6329999,10.957 C14.1539999,10.889 14.7069999,11.021 15.0999999,11.379 C15.4249999,11.669 15.6059999,12.12 15.5379999,12.557 C15.4639999,13.063 15.1249999,13.485 14.7429999,13.804 C14.0519999,14.358 13.1969999,14.682 12.3439999,14.898 C12.3939999,14.844 12.4469999,14.795 12.5109999,14.755 C13.1579999,14.406 13.8009999,13.999 14.2779999,13.43 C14.5669999,13.077 14.7939999,12.616 14.6979999,12.15 C14.6009999,11.61 14.0769999,11.217 13.5419999,11.188 C13.2849999,11.164 13.0449999,11.262 12.7999999,11.311" id="path164_2_"></path>
                <path d="M12.7999999,11.311 C13.0049999,11.061 13.3329999,10.997 13.6329999,10.957 C14.1539999,10.889 14.7069999,11.021 15.0999999,11.379 C15.4249999,11.669 15.6059999,12.12 15.5379999,12.557 C15.4639999,13.063 15.1249999,13.485 14.7429999,13.804 C14.0519999,14.358 13.1969999,14.682 12.3439999,14.898 C12.3939999,14.844 12.4469999,14.795 12.5109999,14.755 C13.1579999,14.406 13.8009999,13.999 14.2779999,13.43 C14.5669999,13.077 14.7939999,12.616 14.6979999,12.15 C14.6009999,11.61 14.0769999,11.217 13.5419999,11.188 C13.2849999,11.164 13.0449999,11.262 12.7999999,11.311 Z" id="path166_2_"></path>
                <path d="M2.93699987,11.757 C3.83899987,11.37 4.82099987,11.119 5.80599987,11.134 C5.23299987,11.301 4.64399987,11.443 4.10399987,11.698 C3.97699987,11.766 3.82999987,11.83 3.75599987,11.963 C3.71599987,12.066 3.82499987,12.134 3.90299987,12.169 C4.23599987,12.307 4.60299987,12.326 4.96299987,12.36 C6.21899987,12.443 7.48099987,12.395 8.73199987,12.316 C9.96699987,12.237 11.1949999,12.07 12.4159999,11.874 C12.1459999,12.001 11.8719999,12.129 11.6209999,12.291 C11.4939999,12.379 11.3369999,12.404 11.1949999,12.438 C9.69299987,12.772 8.15199987,12.876 6.62299987,12.899 C6.02699987,12.904 5.43899987,12.894 4.84999987,12.855 C4.19399987,12.811 3.53099987,12.762 2.88899987,12.59 C2.70099987,12.536 2.50499987,12.477 2.35999987,12.344 C2.28499987,12.285 2.28499987,12.167 2.34899987,12.098 C2.50899987,11.934 2.73599987,11.856 2.93699987,11.757" id="path168_2_"></path>
                <path d="M2.93699987,11.757 C3.83899987,11.37 4.82099987,11.119 5.80599987,11.134 C5.23299987,11.301 4.64399987,11.443 4.10399987,11.698 C3.97699987,11.766 3.82999987,11.83 3.75599987,11.963 C3.71599987,12.066 3.82499987,12.134 3.90299987,12.169 C4.23599987,12.307 4.60299987,12.326 4.96299987,12.36 C6.21899987,12.443 7.48099987,12.395 8.73199987,12.316 C9.96699987,12.237 11.1949999,12.07 12.4159999,11.874 C12.1459999,12.001 11.8719999,12.129 11.6209999,12.291 C11.4939999,12.379 11.3369999,12.404 11.1949999,12.438 C9.69299987,12.772 8.15199987,12.876 6.62299987,12.899 C6.02699987,12.904 5.43899987,12.894 4.84999987,12.855 C4.19399987,12.811 3.53099987,12.762 2.88899987,12.59 C2.70099987,12.536 2.50499987,12.477 2.35999987,12.344 C2.28499987,12.285 2.28499987,12.167 2.34899987,12.098 C2.50899987,11.934 2.73599987,11.856 2.93699987,11.757 Z" id="path170_2_"></path>
                <path d="M4.09499987,13.853 C4.34999987,13.652 4.65499987,13.539 4.95699987,13.431 C4.85999987,13.549 4.72299987,13.662 4.71299987,13.824 C4.70799987,13.927 4.79099987,14.006 4.87499987,14.054 C5.03699987,14.138 5.21899987,14.167 5.39999987,14.191 C6.33999987,14.289 7.29399987,14.344 8.24499987,14.279 C9.11299987,14.235 9.97699987,14.092 10.8359999,13.941 C11.0709999,14.162 11.3509999,14.314 11.6459999,14.446 C10.6109999,14.75 9.54699987,14.927 8.47699987,15.01 C7.46599987,15.078 6.43999987,15.074 5.43499987,14.912 C5.03799987,14.838 4.62899987,14.754 4.26699987,14.568 C4.11999987,14.489 3.95299987,14.386 3.90899987,14.214 C3.87899987,14.069 3.98699987,13.936 4.09499987,13.853" id="path172_2_"></path>
                <path d="M4.09499987,13.853 C4.34999987,13.652 4.65499987,13.539 4.95699987,13.431 C4.85999987,13.549 4.72299987,13.662 4.71299987,13.824 C4.70799987,13.927 4.79099987,14.006 4.87499987,14.054 C5.03699987,14.138 5.21899987,14.167 5.39999987,14.191 C6.33999987,14.289 7.29399987,14.344 8.24499987,14.279 C9.11299987,14.235 9.97699987,14.092 10.8359999,13.941 C11.0709999,14.162 11.3509999,14.314 11.6459999,14.446 C10.6109999,14.75 9.54699987,14.927 8.47699987,15.01 C7.46599987,15.078 6.43999987,15.074 5.43499987,14.912 C5.03799987,14.838 4.62899987,14.754 4.26699987,14.568 C4.11999987,14.489 3.95299987,14.386 3.90899987,14.214 C3.87899987,14.069 3.98699987,13.936 4.09499987,13.853 Z" id="path174_2_"></path>
                <path d="M4.66499987,15.992 C4.89199987,15.81 5.17099987,15.717 5.44499987,15.638 C5.35699987,15.722 5.19999987,15.825 5.26799987,15.967 C5.40199987,16.139 5.64599987,16.159 5.84199987,16.203 C6.67099987,16.307 7.50999987,16.375 8.33899987,16.311 C8.96699987,16.272 9.58499987,16.159 10.1979999,16.051 C10.5509999,16.258 10.9209999,16.434 11.2979999,16.59 C10.7189999,16.85 10.0949999,17.018 9.47199987,17.135 C8.42299987,17.322 7.33899987,17.346 6.28299987,17.179 C5.81699987,17.096 5.34299987,16.988 4.91999987,16.757 C4.75799987,16.664 4.58699987,16.556 4.51799987,16.374 C4.46299987,16.232 4.55199987,16.08 4.66499987,15.992" id="path176_2_"></path>
                <path d="M4.66499987,15.992 C4.89199987,15.81 5.17099987,15.717 5.44499987,15.638 C5.35699987,15.722 5.19999987,15.825 5.26799987,15.967 C5.40199987,16.139 5.64599987,16.159 5.84199987,16.203 C6.67099987,16.307 7.50999987,16.375 8.33899987,16.311 C8.96699987,16.272 9.58499987,16.159 10.1979999,16.051 C10.5509999,16.258 10.9209999,16.434 11.2979999,16.59 C10.7189999,16.85 10.0949999,17.018 9.47199987,17.135 C8.42299987,17.322 7.33899987,17.346 6.28299987,17.179 C5.81699987,17.096 5.34299987,16.988 4.91999987,16.757 C4.75799987,16.664 4.58699987,16.556 4.51799987,16.374 C4.46299987,16.232 4.55199987,16.08 4.66499987,15.992 Z" id="path178_2_"></path>
                <path d="M1.94099987,17.38 C2.39299987,17.228 2.85899987,17.105 3.33499987,17.09 C3.52599987,17.085 3.72299987,17.095 3.88899987,17.194 C3.32099987,17.228 2.75099987,17.37 2.24199987,17.631 C2.12899987,17.694 2.00199987,17.768 1.95699987,17.901 C1.95699987,18.053 2.12899987,18.103 2.24199987,18.151 C2.95399987,18.416 3.71299987,18.499 4.45999987,18.578 C6.68199987,18.764 8.91999987,18.716 11.1429999,18.514 C11.9819999,18.421 12.8259999,18.328 13.6409999,18.097 C13.8999999,18.009 14.1949999,17.921 14.3659999,17.69 C14.4699999,17.553 14.4009999,17.381 14.2989999,17.263 C14.4649999,17.357 14.6989999,17.474 14.6659999,17.7 C14.6029999,17.935 14.3609999,18.058 14.1659999,18.171 C13.5379999,18.49 12.8459999,18.652 12.1589999,18.795 C10.1619999,19.187 8.11599987,19.276 6.08499987,19.217 C4.55399987,19.162 3.02199987,19.016 1.51199987,18.755 C1.24299987,18.692 0.938999866,18.638 0.740999866,18.426 C0.613999866,18.279 0.725999866,18.073 0.848999866,17.965 C1.15699987,17.68 1.55299987,17.523 1.94099987,17.38" id="path180_2_"></path>
                <path d="M1.94099987,17.38 C2.39299987,17.228 2.85899987,17.105 3.33499987,17.09 C3.52599987,17.085 3.72299987,17.095 3.88899987,17.194 C3.32099987,17.228 2.75099987,17.37 2.24199987,17.631 C2.12899987,17.694 2.00199987,17.768 1.95699987,17.901 C1.95699987,18.053 2.12899987,18.103 2.24199987,18.151 C2.95399987,18.416 3.71299987,18.499 4.45999987,18.578 C6.68199987,18.764 8.91999987,18.716 11.1429999,18.514 C11.9819999,18.421 12.8259999,18.328 13.6409999,18.097 C13.8999999,18.009 14.1949999,17.921 14.3659999,17.69 C14.4699999,17.553 14.4009999,17.381 14.2989999,17.263 C14.4649999,17.357 14.6989999,17.474 14.6659999,17.7 C14.6029999,17.935 14.3609999,18.058 14.1659999,18.171 C13.5379999,18.49 12.8459999,18.652 12.1589999,18.795 C10.1619999,19.187 8.11599987,19.276 6.08499987,19.217 C4.55399987,19.162 3.02199987,19.016 1.51199987,18.755 C1.24299987,18.692 0.938999866,18.638 0.740999866,18.426 C0.613999866,18.279 0.725999866,18.073 0.848999866,17.965 C1.15699987,17.68 1.55299987,17.523 1.94099987,17.38 Z" id="path182_2_"></path>
                <path d="M14.1699999,19.058 C14.6639999,18.886 15.1939999,18.704 15.5629999,18.312 C15.4999999,18.739 15.1309999,19.033 14.7689999,19.225 C14.0729999,19.588 13.2909999,19.755 12.5159999,19.892 C10.8779999,20.152 9.21399987,20.216 7.54999987,20.187 C6.41699987,20.152 5.27399987,20.108 4.16099987,19.873 C3.89399987,19.799 3.60999987,19.75 3.37999987,19.593 C4.37099987,19.76 5.37699987,19.829 6.38299987,19.868 C8.03599987,19.917 9.69499987,19.853 11.3379999,19.647 C12.2899999,19.514 13.2469999,19.353 14.1699999,19.058" id="path184_2_"></path>
                <path d="M14.1699999,19.058 C14.6639999,18.886 15.1939999,18.704 15.5629999,18.312 C15.4999999,18.739 15.1309999,19.033 14.7689999,19.225 C14.0729999,19.588 13.2909999,19.755 12.5159999,19.892 C10.8779999,20.152 9.21399987,20.216 7.54999987,20.187 C6.41699987,20.152 5.27399987,20.108 4.16099987,19.873 C3.89399987,19.799 3.60999987,19.75 3.37999987,19.593 C4.37099987,19.76 5.37699987,19.829 6.38299987,19.868 C8.03599987,19.917 9.69499987,19.853 11.3379999,19.647 C12.2899999,19.514 13.2469999,19.353 14.1699999,19.058 Z" id="path186_2_"></path>
            </g>
            <path d="M25.725,21.8309333 L25.725,4.16906671 C25.725,2.01884874 23.9812191,0.275 21.8310955,0.275 L4.16890446,0.275 C2.01878088,0.275 0.275,2.01884874 0.275,4.16906671 L0.275,21.8309333 C0.275,23.9818034 2.01842105,25.725 4.16890446,25.725 L21.8310955,25.725 C23.9815789,25.725 25.725,23.9818034 25.725,21.8309333 Z" id="svg_2" stroke="#02AC46" stroke-width="0.55"></path>
        </g>
    </g>
</svg>